<?xml version="1.0" encoding="UTF-8"?>
<svg version="1.1" xmlns="http://www.w3.org/2000/svg" width="900" height="900">
<path d="M0 0 C297 0 594 0 900 0 C900 297 900 594 900 900 C603 900 306 900 0 900 C0 603 0 306 0 0 Z " fill="#FEFEFE" transform="translate(0,0)"/>
<path d="M0 0 C0.71691259 0.00291284 1.43382519 0.00582568 2.1724624 0.00882679 C2.92877402 0.00797237 3.68508563 0.00711794 4.46431577 0.00623763 C7.01784728 0.00458055 9.57131419 0.01010789 12.12483972 0.01555592 C13.94762413 0.01583777 15.77040865 0.0156801 17.59319299 0.01511341 C22.55786133 0.01482535 27.52250574 0.02072352 32.48716849 0.02768737 C37.66952721 0.03391943 42.85188641 0.03452459 48.03424829 0.03571278 C57.85506804 0.03882653 67.67587672 0.04704051 77.49669158 0.05706227 C88.67425152 0.06822204 99.85181197 0.07373351 111.02937609 0.0787577 C134.02922103 0.08922309 157.02905612 0.10682339 180.02889246 0.12908131 C180.0521322 29.03552655 180.06961442 57.94197109 180.07995779 86.84842389 C180.08120724 90.32723028 180.08250168 93.80603666 180.0838241 97.28484303 C180.08421756 98.32290471 180.08421756 98.32290471 180.08461898 99.38193734 C180.08835097 108.98434144 180.09447069 118.58674124 180.10262786 128.18914255 C180.14959436 183.5277153 180.15850758 238.86319542 179.58748621 294.19939381 C179.57268744 295.66932608 179.57268744 295.66932608 179.55758971 297.16895396 C179.32048011 320.68510061 178.94210593 344.19466056 178.37776083 367.70535427 C177.99251981 383.82478486 177.79721228 399.94363397 177.64019006 416.06667286 C177.28606881 451.8206058 176.67005298 487.56795906 175.96639246 523.31658131 C175.94326612 524.49214714 175.92013979 525.66771298 175.89631265 526.87890202 C175.61228773 541.29573241 175.32319669 555.7124572 175.02889246 570.12908131 C154.43438259 570.15709458 133.84167621 570.08207252 113.24764246 569.94548756 C111.74187976 569.93559842 110.23611702 569.92571526 108.73035425 569.91583782 C102.47042781 569.87463233 96.2105051 569.83292679 89.95059198 569.78974205 C81.09372855 569.72864924 72.23685708 569.67072185 63.37994522 569.61708939 C57.07600167 569.57866511 50.77208734 569.53672313 44.46818393 569.49220276 C40.73187351 569.46590193 36.99556791 569.44105289 33.25922388 569.42000729 C29.10753177 569.39652943 24.95592323 569.36575187 20.80428308 569.33440357 C19.59682932 569.32864811 18.38937555 569.32289265 17.14533228 569.31696278 C15.99980386 569.30717396 14.85427545 569.29738514 13.67403406 569.28729969 C12.21095693 569.27762087 12.21095693 569.27762087 10.71832269 569.26774651 C5.14275695 569.05819195 -0.41081261 568.58322932 -5.97110754 568.12908131 C-5.98821713 514.08716615 -6.00413888 460.04525075 -6.01345068 406.00333363 C-6.01358874 405.2041505 -6.0137268 404.40496737 -6.01386904 403.58156657 C-6.01686159 386.21531087 -6.01963182 368.84905515 -6.02217287 351.48279938 C-6.02342026 342.96702551 -6.02471681 334.45125165 -6.02603918 325.93547779 C-6.02616994 325.08803275 -6.0263007 324.2405877 -6.02643542 323.3674625 C-6.03070068 295.87392523 -6.03821489 268.38039001 -6.04740476 240.88685398 C-6.05682741 212.64577858 -6.06299067 184.40470432 -6.06502253 156.16362738 C-6.06531071 152.17947039 -6.06563635 148.19531341 -6.06598479 144.21115643 C-6.06605221 143.42697753 -6.06611963 142.64279863 -6.0661891 141.83485673 C-6.06737318 129.18560267 -6.07201758 116.5363521 -6.07793958 103.88709947 C-6.08381251 91.18616927 -6.08607912 78.48524257 -6.08460892 65.78431106 C-6.08391288 58.89625207 -6.08485618 52.0082025 -6.09031302 45.12014538 C-6.09514473 38.82556567 -6.09544771 32.5310033 -6.09200644 26.23642283 C-6.09158052 23.94839828 -6.09287816 21.66037269 -6.09599072 19.37235022 C-6.09995084 16.28393777 -6.09787336 13.19558954 -6.09415537 10.10717827 C-6.09678238 9.20014142 -6.0994094 8.29310457 -6.10211602 7.35858175 C-6.08187688 0.01873291 -6.08187688 0.01873291 0 0 Z " fill="#FEFEFE" transform="translate(467.9711075425148,59.870918691158295)"/>
<path d="M0 0 C0.71691259 0.00291284 1.43382519 0.00582568 2.1724624 0.00882679 C2.92877402 0.00797237 3.68508563 0.00711794 4.46431577 0.00623763 C7.01784728 0.00458055 9.57131419 0.01010789 12.12483972 0.01555592 C13.94762413 0.01583777 15.77040865 0.0156801 17.59319299 0.01511341 C22.55786133 0.01482535 27.52250574 0.02072352 32.48716849 0.02768737 C37.66952721 0.03391943 42.85188641 0.03452459 48.03424829 0.03571278 C57.85506804 0.03882653 67.67587672 0.04704051 77.49669158 0.05706227 C88.67425152 0.06822204 99.85181197 0.07373351 111.02937609 0.0787577 C134.02922103 0.08922309 157.02905612 0.10682339 180.02889246 0.12908131 C180.22675112 188.77235095 180.22675112 188.77235095 179.6231727 275.76969105 C179.59680063 279.57300026 179.57150873 283.37631572 179.54655266 287.17963445 C179.35325761 316.55834561 179.081174 345.93177949 178.42624658 375.30445057 C178.06173434 391.73494037 177.79706311 408.16627163 177.55994719 424.59899908 C177.52894325 426.74665648 177.49775252 428.89431109 177.46651262 431.04196507 C177.29723941 442.68927368 177.13112254 454.33662705 176.96639246 465.98400074 C176.82280153 476.13525849 176.67754264 486.28649004 176.52889246 496.43767506 C176.51872724 497.13340233 176.50856203 497.82912959 176.49808878 498.54593951 C176.14854439 522.41063714 175.67605589 546.27052237 175.02889246 570.12908131 C154.43438259 570.15709458 133.84167621 570.08207252 113.24764246 569.94548756 C111.74187976 569.93559842 110.23611702 569.92571526 108.73035425 569.91583782 C102.47042781 569.87463233 96.2105051 569.83292679 89.95059198 569.78974205 C81.09372855 569.72864924 72.23685708 569.67072185 63.37994522 569.61708939 C57.07600167 569.57866511 50.77208734 569.53672313 44.46818393 569.49220276 C40.73187351 569.46590193 36.99556791 569.44105289 33.25922388 569.42000729 C29.10753177 569.39652943 24.95592323 569.36575187 20.80428308 569.33440357 C19.59682932 569.32864811 18.38937555 569.32289265 17.14533228 569.31696278 C15.99980386 569.30717396 14.85427545 569.29738514 13.67403406 569.28729969 C12.21095693 569.27762087 12.21095693 569.27762087 10.71832269 569.26774651 C5.14275695 569.05819195 -0.41081261 568.58322932 -5.97110754 568.12908131 C-5.98821713 514.08716615 -6.00413888 460.04525075 -6.01345068 406.00333363 C-6.01358874 405.2041505 -6.0137268 404.40496737 -6.01386904 403.58156657 C-6.01686159 386.21531087 -6.01963182 368.84905515 -6.02217287 351.48279938 C-6.02342026 342.96702551 -6.02471681 334.45125165 -6.02603918 325.93547779 C-6.02616994 325.08803275 -6.0263007 324.2405877 -6.02643542 323.3674625 C-6.03070068 295.87392523 -6.03821489 268.38039001 -6.04740476 240.88685398 C-6.05682741 212.64577858 -6.06299067 184.40470432 -6.06502253 156.16362738 C-6.06531071 152.17947039 -6.06563635 148.19531341 -6.06598479 144.21115643 C-6.06605221 143.42697753 -6.06611963 142.64279863 -6.0661891 141.83485673 C-6.06737318 129.18560267 -6.07201758 116.5363521 -6.07793958 103.88709947 C-6.08381251 91.18616927 -6.08607912 78.48524257 -6.08460892 65.78431106 C-6.08391288 58.89625207 -6.08485618 52.0082025 -6.09031302 45.12014538 C-6.09514473 38.82556567 -6.09544771 32.5310033 -6.09200644 26.23642283 C-6.09158052 23.94839828 -6.09287816 21.66037269 -6.09599072 19.37235022 C-6.09995084 16.28393777 -6.09787336 13.19558954 -6.09415537 10.10717827 C-6.09678238 9.20014142 -6.0994094 8.29310457 -6.10211602 7.35858175 C-6.08187688 0.01873291 -6.08187688 0.01873291 0 0 Z " fill="#FEFEFE" transform="translate(72.9711075425148,59.870918691158295)"/>
<path d="M0 0 C5.90142936 -0.05484105 11.80285067 -0.09776075 17.70444131 -0.13100982 C21.09057169 -0.15083233 24.47600446 -0.17990143 27.86197102 -0.22217453 C31.52762146 -0.26722814 35.19263246 -0.28786924 38.85851109 -0.30263031 C39.9243052 -0.3220808 40.9900993 -0.34153129 42.0881902 -0.36157119 C48.09614062 -0.35611898 51.59242974 0.04045917 56.13731968 4.10117829 C58.18827135 7.17760578 58.3874714 7.78955233 58.38900197 11.25633347 C58.39682471 12.53336489 58.39682471 12.53336489 58.40480548 13.83619493 C58.40034437 14.77266837 58.39588326 15.70914181 58.39128697 16.67399323 C58.39440996 17.66988109 58.39753295 18.66576895 58.40075058 19.69183522 C58.40877501 23.05262605 58.40239706 26.41323747 58.39610875 29.77402985 C58.39877448 32.1855862 58.40228725 34.59714173 58.40658295 37.00869572 C58.41470184 42.92404231 58.41333166 48.83934302 58.40763741 54.7546883 C58.40321936 59.61692676 58.40314075 64.47914842 58.40602124 69.34138787 C58.40643184 70.0375549 58.40684245 70.73372194 58.4072655 71.45098494 C58.40811903 72.86791052 58.40898091 74.2848361 58.40985101 75.70176167 C58.41799112 89.91836392 58.41110241 104.1349352 58.3987003 118.35153264 C58.38992576 128.44356928 58.38444066 138.53560123 58.38161241 148.62764127 C58.35805963 230.22823122 58.08679392 311.81165474 56.50852025 397.04395783 C56.07201759 420.57309464 55.82393622 444.10308041 55.60282719 467.63508332 C55.52452838 475.92720675 55.44233201 484.21929016 55.35606968 492.51133454 C55.34741257 493.34420109 55.33875546 494.17706765 55.32983601 495.03517258 C55.17241798 509.91961128 54.89765132 524.79978177 54.50514805 539.68000519 C54.21538714 550.68087424 54.12053772 561.66655508 54.18028843 572.67149079 C54.18877057 574.5437307 54.18877057 574.5437307 54.19742405 576.45379364 C54.22702322 582.56123637 54.27369804 588.66772323 54.34996617 594.77476227 C54.36551478 596.96819959 54.38059426 599.16164029 54.39513218 601.35508454 C54.41379841 602.35576966 54.43246464 603.35645478 54.45169652 604.38746369 C54.47453568 610.62528865 53.74322919 614.95237097 49.63731968 619.91367829 C46.59284979 622.32388362 43.57284408 622.22956506 39.85997593 622.23399079 C38.25025914 622.23592438 38.25025914 622.23592438 36.60802281 622.23789704 C35.48331578 622.23402985 34.35860875 622.23016266 33.19981968 622.22617829 C31.61137242 622.23197907 31.61137242 622.23197907 29.99083531 622.23789704 C24.33088712 622.23123436 18.71837014 622.09562161 13.06878388 621.74812806 C-1.9233709 620.85551669 -16.93551157 620.895471 -31.9484359 620.83078682 C-35.95534898 620.81231668 -39.96222637 620.78799977 -43.96911037 620.76414216 C-54.98049436 620.69959204 -65.99191903 620.64377808 -77.00335109 620.58815491 C-87.11577754 620.53698709 -97.22818418 620.48386351 -107.34056121 620.4236294 C-111.30747075 620.40021102 -115.27437152 620.37861639 -119.24131382 620.36153901 C-147.57325755 620.23841395 -147.57325755 620.23841395 -159.06946743 619.77110016 C-159.79829663 619.74969216 -160.52712583 619.72828415 -161.27804077 619.70622742 C-165.7883433 619.47501082 -169.00975693 618.44745751 -172.86268032 616.10117829 C-176.21144594 612.39038395 -177.98586333 609.99671145 -177.99378282 605.02003044 C-177.99756746 604.15871253 -178.00135211 603.29739461 -178.00525144 602.40997615 C-178.00433951 601.4562282 -178.00342758 600.50248024 -178.00248802 599.51983082 C-178.00543944 598.50828447 -178.00839086 597.49673812 -178.01143172 596.45453885 C-178.02017389 593.02549038 -178.02170799 589.59647543 -178.02330959 586.16741669 C-178.02803706 583.69992319 -178.03318749 581.23243047 -178.03872722 578.76493865 C-178.05121039 572.66925386 -178.0589322 566.57357885 -178.06462601 560.47788526 C-178.07167479 553.18012599 -178.08443312 545.88237946 -178.0971752 538.58462832 C-178.12905434 520.10517928 -178.14886546 501.62572179 -178.16646072 483.14625445 C-178.17122696 478.14265701 -178.17623589 473.13905982 -178.18126595 468.13546264 C-178.2123096 437.09027794 -178.23893404 406.0450911 -178.25568473 374.99989522 C-178.25962213 367.80473367 -178.26363393 360.60957217 -178.26770961 353.41441071 C-178.26821128 352.52048102 -178.26871295 351.62655134 -178.26922982 350.70553287 C-178.28565185 321.71520163 -178.32411311 292.72495473 -178.37499672 263.73466498 C-178.42719071 233.94360226 -178.45999528 204.15258445 -178.46726227 174.36147507 C-178.4682909 170.15580467 -178.46952723 165.95013435 -178.4708823 161.74446404 C-178.47114033 160.91672186 -178.47139837 160.08897969 -178.47166423 159.23615442 C-178.47636369 145.90192918 -178.5013171 132.56781491 -178.53363372 119.23363124 C-178.56563113 105.8360425 -178.57565553 92.43857901 -178.56320178 79.04095659 C-178.55645331 71.07715366 -178.56646543 63.11378021 -178.60032878 55.15004421 C-178.62374982 49.20943558 -178.61596335 43.26913835 -178.59586097 37.32850822 C-178.59262006 34.92064441 -178.59960998 32.51274148 -178.61765819 30.10494313 C-178.64065623 26.83980226 -178.62690778 23.57682342 -178.6037606 20.31173146 C-178.61923683 19.36968933 -178.63471307 18.4276472 -178.65065828 17.45705834 C-178.56086028 11.74608532 -177.47991963 8.64802518 -173.53975171 4.46877603 C-169.73517856 1.36626909 -166.73603788 0.8479139 -161.87650478 0.82270539 C-160.647998 0.81154191 -159.41949123 0.80037842 -158.15375698 0.78887665 C-156.79322262 0.7865109 -155.43268791 0.78433539 -154.07215297 0.78233063 C-152.63522711 0.77302579 -151.19830662 0.76285629 -149.76139247 0.75188935 C-145.84024761 0.72448137 -141.91913908 0.70938222 -137.99792325 0.69646132 C-133.83084385 0.68070222 -129.66383437 0.65390185 -125.49680507 0.62843049 C-118.43665648 0.58680767 -111.37650341 0.5524117 -104.3162936 0.52305329 C-97.20102442 0.49345891 -90.08580543 0.45919444 -82.97059047 0.4185611 C-82.11013252 0.41364962 -81.24967457 0.40873814 -80.36314213 0.40367782 C-78.6300959 0.39375134 -76.89704977 0.38380828 -75.16400373 0.37384856 C-59.78075228 0.28574715 -44.39755179 0.21869132 -29.01412427 0.17048705 C-19.34242697 0.13974355 -9.67133919 0.08991455 0 0 Z M-152.86268032 27.10117829 C-152.96178648 30.10138581 -152.99441886 33.07860568 -152.98572814 36.07927525 C-152.98688199 37.03773697 -152.98803583 37.9961987 -152.98922464 38.98370472 C-152.99189947 42.23813518 -152.98736207 45.49251748 -152.98293483 48.7469455 C-152.98337036 51.08657048 -152.98424492 53.42619541 -152.985524 55.76582009 C-152.98753624 61.54888734 -152.98486477 67.33193956 -152.98028332 73.11500504 C-152.9750616 80.0374438 -152.97562647 86.95987888 -152.97642778 93.88231912 C-152.97774383 106.65921384 -152.97439212 119.43610339 -152.96841037 132.2129966 C-152.96250001 144.86974913 -152.95864578 157.52649951 -152.95755756 170.18325341 C-152.95748882 170.96924329 -152.95742008 171.75523318 -152.95734926 172.56504094 C-152.95701094 176.55643744 -152.95670955 180.54783395 -152.95642238 184.53923046 C-152.95432013 212.8345394 -152.94757764 241.12984554 -152.93811977 269.4251529 C-152.92894028 296.91929337 -152.92185425 324.41343308 -152.91761196 351.90757477 C-152.91748043 352.75457295 -152.9173489 353.60157112 -152.91721339 354.47423591 C-152.91589491 362.97988404 -152.91461909 371.48553218 -152.91337453 379.99118032 C-152.9108381 397.31926379 -152.90801684 414.64734721 -152.90502346 431.97543061 C-152.90488617 432.77220554 -152.90474888 433.56898047 -152.90460743 434.38990009 C-152.89540164 487.62699401 -152.8795351 540.86408631 -152.86268032 594.10117829 C-143.05280715 594.92588467 -143.05280715 594.92588467 -133.21753871 595.25939667 C-132.0720103 595.26918549 -130.92648189 595.27897431 -129.7462405 595.28905976 C-128.53878673 595.29481522 -127.33133296 595.30057068 -126.08728969 595.30650055 C-124.12069644 595.32134995 -124.12069644 595.32134995 -122.11437404 595.33649933 C-118.55341158 595.36325784 -114.99243638 595.38444334 -111.4314307 595.40450132 C-107.66138099 595.42666958 -103.8913677 595.45393236 -100.12134731 595.48055756 C-93.77684113 595.52466272 -87.43232102 595.56544486 -81.08777797 595.60386384 C-72.24539318 595.65741749 -63.40305927 595.71725963 -54.56072319 595.77825952 C-48.3362649 595.82094282 -42.11179584 595.86201999 -35.88732517 595.90285099 C-34.40592913 595.91258009 -32.9245334 595.92235576 -31.443138 595.93218076 C-11.5827077 596.06370652 8.27645395 596.12819363 28.13731968 596.10117829 C28.45581749 581.39297078 28.76792406 566.68463249 29.07481968 551.97617829 C29.09786545 550.87176014 29.12091122 549.767342 29.14465535 548.62945664 C29.83335683 515.53816553 30.4188345 482.44809344 30.77203381 449.35144532 C30.81068631 445.7354587 30.85064477 442.11948748 30.89122593 438.50352204 C30.89921963 437.78301415 30.90721333 437.06250626 30.91544926 436.3201648 C31.04003251 425.35748483 31.25240066 414.39818745 31.49608433 403.43755829 C32.18091445 372.59418558 32.46731943 341.75057234 32.66974843 310.90099823 C32.69490224 307.07140333 32.72119288 303.24181712 32.74776214 299.4122318 C33.37803439 208.31005527 33.23287392 117.20491866 33.13731968 26.10117829 C9.03358811 26.07785208 -15.07014179 26.06020048 -39.17388237 26.04936612 C-50.36482991 26.04420257 -61.55577046 26.03715875 -72.74671352 26.02573884 C-82.4969741 26.01579379 -92.24722961 26.00932529 -101.99749511 26.00708979 C-107.1635713 26.00578238 -112.32963298 26.0026946 -117.49570453 25.99544823 C-122.35224365 25.98869085 -127.20876222 25.98656075 -132.06530559 25.98807061 C-133.85321274 25.98779415 -135.64112053 25.98578736 -137.42902362 25.98197281 C-139.8590783 25.97703996 -142.28905408 25.97817847 -144.71911037 25.98092377 C-145.43602296 25.97801093 -146.15293556 25.97509809 -146.89157277 25.97209698 C-150.15803553 25.7015198 -150.15803553 25.7015198 -152.86268032 27.10117829 Z " fill="#020202" transform="translate(219.86268031597137,33.89882171154022)"/>
<path d="M0 0 C3.80089633 -0.05044107 7.60185706 -0.08549559 11.40293998 -0.11853087 C13.20817033 -0.13817162 15.01333907 -0.16494741 16.81834882 -0.19933045 C19.31099857 -0.24621124 21.8027529 -0.26821657 24.29576164 -0.28487384 C25.02628498 -0.30504621 25.75680832 -0.32521857 26.50946873 -0.34600222 C31.60108109 -0.34473907 34.448821 0.88951078 38.35342461 4.11096966 C40.96875773 8.03396935 40.63110553 11.34823932 40.60739189 15.89949811 C40.61051488 16.81127375 40.61363788 17.7230494 40.6168555 18.66245461 C40.62487902 21.73951464 40.61850152 24.81637863 40.61221367 27.89344037 C40.61488001 30.10372193 40.61839312 32.31400262 40.62268788 34.52428162 C40.63175983 40.5856263 40.62803603 46.64690472 40.6218608 52.70825064 C40.61809001 57.8436094 40.62132346 62.97895373 40.62464762 68.11431205 C40.63352182 81.8966374 40.62779878 95.67891677 40.61480522 109.46123683 C40.60602332 118.80930334 40.60054238 128.15736478 40.59771734 137.50543495 C40.57252137 218.4831569 40.16229064 299.4449823 38.72462517 391.09682477 C38.44018079 408.78467196 38.20729059 426.47244365 38.03311211 444.16175091 C38.02201597 445.28239123 38.01091984 446.40303154 37.99948746 447.55763066 C37.90915646 456.74548419 37.82318128 465.93337508 37.742127 475.12131512 C37.69709772 480.21164203 37.64957449 485.30193971 37.59951836 490.39221966 C37.59175314 491.19314353 37.58398793 491.99406739 37.5759874 492.81926167 C37.42921433 507.44873846 37.09397931 522.07196996 36.74825531 536.69788373 C36.46878864 548.68269749 36.28055703 560.65396599 36.36123711 572.64221966 C36.36907723 573.83633465 36.37691735 575.03044964 36.38499504 576.26074994 C36.42095746 580.92713209 36.46548532 585.59326079 36.52481133 590.25940716 C36.56684792 593.80370574 36.59039806 597.34774239 36.61123711 600.89221966 C36.63916847 602.4667088 36.63916847 602.4667088 36.66766411 604.0730058 C36.69029209 610.44182463 36.04826563 614.85470343 31.85342461 619.92346966 C27.45197704 623.40794899 21.07775935 622.25459621 15.79092461 622.23596966 C14.7822332 622.23983685 13.7735418 622.24370404 12.73428398 622.24768841 C6.16553848 622.23981694 -0.37683935 622.04866869 -6.93824619 621.75791943 C-23.00043109 621.06061049 -39.05514003 620.91381053 -55.12912005 620.8405782 C-58.95181921 620.82198351 -62.77448244 620.79772568 -66.59715217 620.77393353 C-77.07780483 620.70965905 -87.55849758 620.6535419 -98.03919929 620.59794629 C-107.68704876 620.54672709 -117.33487798 620.4936397 -126.98267603 620.43342078 C-130.76170101 620.41003754 -134.540717 620.38844045 -138.319776 620.37133038 C-165.22185116 620.24834039 -165.22185116 620.24834039 -176.75814766 619.78089154 C-177.4927191 619.75948353 -178.22729055 619.73807553 -178.98412174 619.7160188 C-183.52612544 619.48594867 -186.7679504 618.47820117 -190.64657539 616.11096966 C-193.99534102 612.40017532 -195.7697584 610.00650283 -195.77767789 605.02982181 C-195.78146254 604.1685039 -195.78524718 603.30718599 -195.78914651 602.41976753 C-195.78823458 601.46601957 -195.78732266 600.51227161 -195.78638309 599.5296222 C-195.78933452 598.51807585 -195.79228594 597.5065295 -195.7953268 596.46433023 C-195.80406897 593.03528175 -195.80560307 589.6062668 -195.80720466 586.17720807 C-195.81193214 583.70971456 -195.81708256 581.24222184 -195.8226223 578.77473003 C-195.83510547 572.67904524 -195.84282728 566.58337023 -195.84852109 560.48767663 C-195.85556987 553.18991736 -195.86832819 545.89217084 -195.88107028 538.59441969 C-195.91294941 520.11497065 -195.93276053 501.63551317 -195.9503558 483.15604582 C-195.95512204 478.15244838 -195.96013096 473.1488512 -195.96516103 468.14525402 C-195.99620468 437.10006931 -196.02282912 406.05488248 -196.03957981 375.00968659 C-196.0435172 367.81452505 -196.04752901 360.61936355 -196.05160469 353.42420208 C-196.05210636 352.5302724 -196.05260802 351.63634271 -196.05312489 350.71532424 C-196.06954692 321.724993 -196.10800818 292.7347461 -196.15889179 263.74445636 C-196.21108579 233.95339363 -196.24389035 204.16237583 -196.25115734 174.37126644 C-196.25218598 170.16559604 -196.25342231 165.95992572 -196.25477737 161.75425541 C-196.25503541 160.92651324 -196.25529345 160.09877106 -196.2555593 159.24594579 C-196.26025876 145.91172055 -196.28521217 132.57760628 -196.3175288 119.24342262 C-196.3495262 105.84583388 -196.3595506 92.44837039 -196.34709685 79.05074797 C-196.34034838 71.08694503 -196.35036051 63.12357159 -196.38422386 55.15983558 C-196.4076449 49.21922696 -196.39985843 43.27892973 -196.37975604 37.33829959 C-196.37651513 34.93043578 -196.38350505 32.52253286 -196.40155327 30.11473451 C-196.42455131 26.84959363 -196.41080285 23.5866148 -196.38765568 20.32152283 C-196.40313191 19.3794807 -196.41860814 18.43743857 -196.43455335 17.46684971 C-196.34475535 11.75587669 -195.26381471 8.65781656 -191.32364679 4.4785674 C-187.22388539 1.13534395 -183.96075393 0.85570806 -178.721847 0.83249676 C-178.02456873 0.82670436 -177.32729046 0.82091196 -176.60888255 0.81494403 C-174.27089543 0.79793474 -171.93310572 0.7950662 -169.59506172 0.79212201 C-167.91716985 0.78282101 -166.23928261 0.77265209 -164.56140083 0.76168072 C-159.99085859 0.73429729 -155.42034741 0.71919194 -150.8497445 0.70625269 C-146.02821744 0.69055866 -141.20675178 0.66375889 -136.38526863 0.63822186 C-128.24835003 0.59664926 -120.11142774 0.56220497 -111.97445625 0.53284466 C-100.6507407 0.49198517 -89.32710637 0.43923833 -78.00345522 0.38356483 C-65.394185 0.3220615 -52.78489332 0.26463078 -40.17558235 0.21213543 C-38.83688617 0.2064899 -38.83688617 0.2064899 -37.47114563 0.20073032 C-33.07932841 0.18290619 -28.68754476 0.16859185 -24.29569668 0.16132939 C-22.57424663 0.1582195 -20.85279677 0.15500319 -19.13134712 0.15168011 C-18.28191896 0.1500534 -17.43249079 0.14842669 -16.55732238 0.14675069 C-11.03754845 0.13124351 -5.51925176 0.07666223 0 0 Z M-170.64657539 27.11096966 C-170.74568156 30.11117719 -170.77831394 33.08839705 -170.76962322 36.08906662 C-170.77077706 37.04752835 -170.77193091 38.00599007 -170.77311972 38.99349609 C-170.77579455 42.24792656 -170.77125714 45.50230885 -170.76682991 48.75673687 C-170.76726543 51.09636186 -170.76813999 53.43598679 -170.76941907 55.77561146 C-170.77143132 61.55867871 -170.76875984 67.34173094 -170.7641784 73.12479642 C-170.75895668 80.04723517 -170.75952154 86.96967025 -170.76032285 93.8921105 C-170.76163891 106.66900521 -170.7582872 119.44589477 -170.75230545 132.22278798 C-170.74639509 144.8795405 -170.74254085 157.53629088 -170.74145263 170.19304478 C-170.74138389 170.97903467 -170.74131516 171.76502455 -170.74124433 172.57483231 C-170.74090601 176.56622882 -170.74060463 180.55762532 -170.74031746 184.54902183 C-170.7382152 212.84433078 -170.73147271 241.13963691 -170.72201484 269.43494427 C-170.71283536 296.92908474 -170.70574932 324.42322445 -170.70150703 351.91736615 C-170.70137551 352.76436432 -170.70124398 353.6113625 -170.70110847 354.48402729 C-170.69978999 362.98967542 -170.69851417 371.49532355 -170.69726961 380.0009717 C-170.69473317 397.32905517 -170.69191192 414.65713859 -170.68891853 431.98522198 C-170.68878124 432.78199691 -170.68864395 433.57877184 -170.6885025 434.39969147 C-170.67929672 487.63678538 -170.66343017 540.87387769 -170.64657539 594.11096966 C-160.83670222 594.93567605 -160.83670222 594.93567605 -151.00143379 595.26918805 C-149.85590538 595.27897686 -148.71037697 595.28876568 -147.53013557 595.29885113 C-146.32268181 595.3046066 -145.11522804 595.31036206 -143.87118477 595.31629193 C-141.90459152 595.33114132 -141.90459152 595.33114132 -139.89826912 595.34629071 C-136.33730665 595.37304922 -132.77633145 595.39423472 -129.21532577 595.41429269 C-125.44527606 595.43646095 -121.67526277 595.46372373 -117.90524238 595.49034894 C-111.56073621 595.5344541 -105.2162161 595.57523624 -98.87167305 595.61365521 C-90.02928826 595.66720887 -81.18695434 595.72705101 -72.34461826 595.78805089 C-66.12015998 595.83073419 -59.89569091 595.87181136 -53.67122024 595.91264236 C-52.18982421 595.92237147 -50.70842848 595.93214714 -49.22703308 595.94197214 C-29.36660278 596.07349789 -9.50744113 596.137985 10.35342461 596.11096966 C10.67196916 580.50692243 10.98394921 564.90274878 11.29092461 549.29846966 C11.31397038 548.12765725 11.33701615 546.95684483 11.36076027 545.75055325 C12.05319545 510.48693017 12.64162284 475.22440049 12.98510605 439.95554936 C13.14725595 423.62438198 13.37555733 407.29909419 13.76747745 390.97164857 C14.32796119 367.37636342 14.67441646 343.78181048 14.91201836 320.18128216 C14.92244313 319.17104442 14.93286791 318.16080667 14.94360858 317.11995566 C15.50996772 262.13441701 15.4721639 207.14842029 15.42545217 152.16061056 C15.41736292 142.52931805 15.41200688 132.89802656 15.40835625 123.26673138 C15.40809353 122.57559934 15.4078308 121.88446731 15.40756012 121.17239188 C15.40625386 117.70073696 15.40499045 114.22908203 15.40374821 110.7574271 C15.39359797 82.54193613 15.37610884 54.32645321 15.35342461 26.11096966 C-8.75030697 26.08764345 -32.85403686 26.06999186 -56.95777744 26.05915749 C-68.14872499 26.05399394 -79.33966554 26.04695013 -90.53060859 26.03553021 C-100.28086917 26.02558517 -110.03112468 26.01911667 -119.78139019 26.01688117 C-124.94746637 26.01557375 -130.11352806 26.01248597 -135.27959961 26.00523961 C-140.13613873 25.99848222 -144.99265729 25.99635212 -149.84920067 25.99786198 C-151.63710781 25.99758553 -153.4250156 25.99557874 -155.2129187 25.99176419 C-157.64297338 25.98683133 -160.07294916 25.98796985 -162.50300545 25.99071515 C-163.21991804 25.9878023 -163.93683063 25.98488946 -164.67546785 25.98188835 C-167.94193061 25.71131117 -167.94193061 25.71131117 -170.64657539 27.11096966 Z " fill="#020202" transform="translate(632.6465753912926,33.88903033733368)"/>
<path d="M0 0 C4.68898239 2.82662447 7.24592647 5.81594893 9 11 C9.25217834 13.61147251 9.25217834 13.61147251 9.255301 16.46684396 C9.26133294 17.56138367 9.26736487 18.65592339 9.2735796 19.78363097 C9.27004066 20.98298447 9.26650171 22.18233796 9.26285553 23.41803551 C9.2669608 24.69980643 9.27106606 25.98157736 9.27529573 27.30218983 C9.28643643 30.8737883 9.2850829 34.44529094 9.28174055 38.01690124 C9.28027976 41.89735276 9.29032091 45.7777771 9.29889059 49.65821707 C9.31406112 57.36065815 9.31843724 65.0630715 9.3195487 72.76552595 C9.32137491 81.98879699 9.33470667 91.21204234 9.34824235 100.43530233 C9.38037577 122.72707772 9.39216977 145.0188504 9.40173985 167.31064479 C9.40640971 177.85205165 9.41361471 188.39345634 9.4211306 198.9348615 C9.44680082 235.00643939 9.46824083 271.07801606 9.4751358 307.14960289 C9.47557907 309.41429499 9.47602264 311.67898709 9.47646651 313.94367919 C9.47690779 316.21388819 9.47734875 318.4840972 9.4777894 320.7543062 C9.47867452 325.30886038 9.47956874 329.86341457 9.48046875 334.41796875 C9.48068753 335.54723492 9.48090631 336.6765011 9.48113173 337.83998746 C9.48839634 374.47354995 9.52024993 411.10703338 9.56684948 447.74056558 C9.61600742 486.45597647 9.64347961 525.17134214 9.64587164 563.88678515 C9.64621456 568.13411436 9.64664542 572.38144354 9.6471405 576.62877274 C9.64730781 578.19753341 9.64730781 578.19753341 9.64747849 579.79798622 C9.64978255 596.64959059 9.67185195 613.50111397 9.70091461 630.35269097 C9.72960334 647.27968558 9.73614194 664.20657605 9.72003466 681.1335883 C9.71110307 691.19695437 9.71891856 701.25998497 9.75051167 711.32330716 C9.76995145 718.04001686 9.76771299 724.75649047 9.74763921 731.4731978 C9.73681127 735.30383442 9.73557272 739.13382499 9.76065665 742.96440916 C9.78742749 747.08686889 9.7680122 751.20780698 9.7438736 755.33028221 C9.75906398 756.52495338 9.77425437 757.71962454 9.78990507 758.95049787 C9.70810007 765.37712492 9.12928028 769.19709971 4.48166069 773.81651352 C0.71833143 776.82249818 -3.38629725 776.43978103 -8 776 C-12.26869424 774.23684368 -14.01052974 772.11295813 -16 768 C-16.27972406 765.31944687 -16.3982423 762.8771523 -16.36914349 760.20077038 C-16.37433579 759.0271387 -16.37433579 759.0271387 -16.37963298 757.8297973 C-16.38759753 755.1981229 -16.37409548 752.56699496 -16.36076355 749.93534851 C-16.36207136 748.03362375 -16.36469732 746.13189952 -16.36853105 744.23017818 C-16.37525279 738.99668203 -16.36322009 733.76336938 -16.34819686 728.52989662 C-16.33526511 722.88916832 -16.33962393 717.24845073 -16.34190369 711.60771179 C-16.34347823 701.83219124 -16.33405007 692.05673067 -16.31719017 682.2812252 C-16.29282932 668.14742041 -16.28499788 654.01364467 -16.2812262 639.87982116 C-16.27465714 616.94972803 -16.25470937 594.01967399 -16.22631836 571.08959961 C-16.19876776 548.81258307 -16.1775156 526.53557508 -16.16479492 504.25854492 C-16.16440034 503.57193683 -16.16400576 502.88532874 -16.16359923 502.17791435 C-16.15964369 495.28274855 -16.15581624 488.38758268 -16.15208265 481.49241675 C-16.12075643 423.66158925 -16.06781487 365.83079568 -16 308 C-17.12673126 308.00888245 -18.25346252 308.01776489 -19.41433716 308.0269165 C-30.03746821 308.10803554 -40.66053633 308.16798144 -51.28390694 308.20724869 C-56.74539228 308.22811515 -62.20662741 308.25641599 -67.66796875 308.30175781 C-72.93939546 308.34524856 -78.21058163 308.36914419 -83.48217392 308.37950897 C-85.49241802 308.3868945 -87.5026491 308.40131675 -89.51279068 308.42292023 C-92.3305929 308.4519969 -95.1474037 308.45595419 -97.96533203 308.45410156 C-98.79467758 308.46848267 -99.62402313 308.48286377 -100.47850037 308.49768066 C-105.79813325 308.45988576 -108.75320532 307.48526086 -113 304 C-116.47474321 300.33385144 -116.55965298 297.36861505 -116.4296875 292.48046875 C-115.73257257 288.45621441 -113.96066221 286.74918634 -111 284 C-107.66049147 282.33024573 -103.90709514 282.87116994 -100.23583984 282.88647461 C-99.32846573 282.88632858 -98.42109161 282.88618256 -97.48622131 282.8860321 C-94.47776932 282.88673049 -91.46937872 282.89451946 -88.4609375 282.90234375 C-86.37871332 282.90420819 -84.29648869 282.90563197 -82.21426392 282.90663147 C-76.72663162 282.91045459 -71.23902567 282.92028314 -65.75140381 282.93133545 C-60.15458533 282.94155398 -54.55776261 282.94613004 -48.9609375 282.95117188 C-37.97394674 282.96190557 -26.98697556 282.97897955 -16 283 C-16.0018986 282.42038667 -16.0037972 281.84077333 -16.00575334 281.24359596 C-16.11762189 246.89785555 -16.20342168 212.5521515 -16.25532665 178.20626765 C-16.26158025 174.08314948 -16.26805185 169.96003168 -16.2746582 165.83691406 C-16.27596976 165.01606886 -16.27728131 164.19522366 -16.2786326 163.34950437 C-16.30039451 150.05508874 -16.33982033 136.76078111 -16.38576398 123.46642958 C-16.43250682 109.82715767 -16.46029079 96.18794236 -16.47044247 82.54859364 C-16.47730617 74.13101354 -16.49899119 65.71373871 -16.53958233 57.29625256 C-16.56599393 51.52557295 -16.57400462 45.75505136 -16.56750689 39.98431568 C-16.56430133 36.65370574 -16.57196979 33.32406025 -16.59602737 29.99347115 C-16.62083644 26.38241563 -16.61494775 22.77267535 -16.60127258 19.16159058 C-16.61583679 18.10905684 -16.630401 17.05652311 -16.64540654 15.97209442 C-16.598106 11.36388375 -16.55987752 8.05626887 -13.57960796 4.38833809 C-9.13616456 0.27436214 -6.17002619 -0.83661372 0 0 Z " fill="#020202" transform="translate(410,39)"/>
<path d="M0 0 C4.44465573 2.30780202 6.98855078 4.42477665 9 9 C9.44299402 12.82707616 9.39566154 16.63463769 9.36749268 20.48344421 C9.37239594 22.24570499 9.37239594 22.24570499 9.37739825 24.043567 C9.38342124 27.30078792 9.37598497 30.5576582 9.36285591 33.81484807 C9.35195635 37.32881135 9.35837106 40.84274833 9.36264038 44.35671997 C9.36827405 51.23823264 9.35795901 58.11963389 9.34235242 65.00112756 C9.32482205 73.01045529 9.32339337 81.01976136 9.32273683 89.02910528 C9.32104875 103.31508192 9.30523214 117.60100775 9.28125 131.88696289 C9.25797891 145.75936301 9.24382346 159.63173091 9.24023438 173.50415039 C9.24001161 174.3589737 9.23978884 175.213797 9.23955932 176.09452405 C9.23911673 177.81650616 9.23867471 179.53848827 9.23823325 181.26047038 C9.23801369 182.10984676 9.23779412 182.95922313 9.2375679 183.83433819 C9.23724392 185.10512301 9.23724392 185.10512301 9.2369134 186.40158026 C9.23321563 199.61016321 9.22185691 212.81874094 9.2094375 226.02731818 C9.20499811 230.81979462 9.20156157 235.61227058 9.19881538 240.40474828 C9.1943889 248.00360709 9.18663613 255.60244666 9.17204097 263.20129331 C9.16542095 266.67491136 9.16036596 270.14851237 9.15958023 273.62213707 C9.15784363 277.38061906 9.14998492 281.13903764 9.14044189 284.89750671 C9.14130838 286.00497259 9.14217486 287.11243847 9.1430676 288.25346392 C9.13730588 289.75441362 9.13730588 289.75441362 9.13142776 291.28568554 C9.13018127 292.15405361 9.12893477 293.02242169 9.1276505 293.91710395 C9 296 9 296 8 298 C7.89547784 300.23306005 7.85769345 302.46931745 7.84851074 304.70480347 C7.84428028 305.40355418 7.84004981 306.10230489 7.83569115 306.82222986 C7.82261266 309.180805 7.81662911 311.5393464 7.81054688 313.89794922 C7.80257203 315.58995584 7.79415229 317.28196041 7.78532124 318.97396278 C7.76234147 323.60933372 7.74543565 328.24471012 7.72946954 332.88010979 C7.71143916 337.79928095 7.68772038 342.71842444 7.66447449 347.63757324 C7.62542972 356.02845293 7.58947699 364.419341 7.55526733 372.8102417 C7.50185334 385.81966425 7.43734757 398.82902005 7.37036133 411.83837891 C7.35930775 413.99467148 7.34825816 416.15096408 7.33721256 418.3072567 C7.32069298 421.52947973 7.30416015 424.75170269 7.2875908 427.97392547 C7.22780336 439.60630896 7.16939374 451.23869912 7.11181641 462.87109375 C7.10681747 463.87894338 7.10181854 464.88679301 7.09666812 465.92518353 C7.02939037 479.52589144 6.96906678 493.12661075 6.91492391 506.7273767 C6.87319074 517.14044385 6.81873309 527.55337342 6.74692345 537.96627998 C6.7046552 544.15455693 6.67856723 550.34258982 6.66559887 556.53099442 C6.65375324 560.22795819 6.62570551 563.92464958 6.59224892 567.62147522 C6.58048411 569.27033566 6.57532398 570.9192603 6.57768822 572.56816101 C6.57999628 574.75355032 6.55823368 576.93738221 6.5300293 579.12255859 C6.52122993 580.91673721 6.52122993 580.91673721 6.51225281 582.74716187 C5.89078334 586.6935328 4.45308994 588.88414365 2 592 C-2.00704766 594.7533575 -6.30935713 594.53703246 -11 594 C-15.27005299 592.23628246 -16.98241619 590.09588881 -19 586 C-19.36412811 582.78518581 -19.36412811 582.78518581 -19.34851074 579.07164001 C-19.34973922 578.38455977 -19.3509677 577.69747952 -19.35223341 576.98957866 C-19.35266406 574.68671151 -19.33155938 572.38455105 -19.31054688 570.08178711 C-19.30637979 568.42149943 -19.3035315 566.76120801 -19.30189514 565.10091591 C-19.29356257 560.55525936 -19.26639835 556.00988185 -19.23604774 551.46432614 C-19.20678178 546.60100446 -19.19472761 541.73763711 -19.18054199 536.87425232 C-19.15036157 527.47656107 -19.10409227 518.07901702 -19.05191183 508.6814248 C-19.01087191 501.22865477 -18.97599595 493.77588075 -18.94580078 486.32305908 C-18.94157042 485.27911393 -18.93734005 484.23516878 -18.93298149 483.15958893 C-18.92445565 481.04852729 -18.91594317 478.9374656 -18.907444 476.82640386 C-18.81183006 453.32732755 -18.68689218 429.82844356 -18.55462074 406.32954919 C-18.49222256 395.22999906 -18.43267185 384.13043405 -18.37324238 373.0308677 C-18.25176713 350.3538953 -18.12708495 327.67694162 -18 305 C-19.05156281 305.00888245 -20.10312561 305.01776489 -21.18655396 305.0269165 C-31.10330565 305.10805247 -41.01998988 305.16798951 -50.93699837 305.20724869 C-56.03528823 305.22811092 -61.13330983 305.25640383 -66.23144531 305.30175781 C-71.15274563 305.34526396 -76.07378815 305.36914737 -80.99526596 305.37950897 C-82.87154066 305.38689176 -84.74780146 305.40130873 -86.62396622 305.42292023 C-89.25499049 305.45201777 -91.88495363 305.45595338 -94.51611328 305.45410156 C-95.2893544 305.46848267 -96.06259552 305.48286377 -96.85926819 305.49768066 C-102.0650153 305.4581139 -104.98813234 304.28175309 -109 301 C-111.40897521 298.02893058 -111.96512871 296.3254654 -112.375 292.5 C-111.85430357 287.64016662 -110.29836401 285.32178139 -106.92134094 281.8838501 C-103.09448763 279.4160731 -99.84960692 279.46629433 -95.44604492 279.54589844 C-94.17210876 279.54502228 -94.17210876 279.54502228 -92.87243652 279.54412842 C-90.07469327 279.54690764 -87.2780251 279.57799158 -84.48046875 279.609375 C-82.53705935 279.61683797 -80.5936424 279.62253064 -78.65022278 279.62652588 C-73.54219686 279.64177774 -68.43462794 279.68105585 -63.32678223 279.7253418 C-58.11179791 279.76630407 -52.89673955 279.78453895 -47.68164062 279.8046875 C-37.45422661 279.8475504 -27.22715135 279.91579645 -17 280 C-17.00170874 279.15336726 -17.00170874 279.15336726 -17.003452 278.28963083 C-17.07058645 244.83730197 -17.12205978 211.38499 -17.15319599 177.93260887 C-17.15694811 173.91592859 -17.16083107 169.89924844 -17.16479492 165.88256836 C-17.16558185 165.08291977 -17.16636878 164.28327119 -17.16717956 163.45939083 C-17.18023343 150.51164607 -17.20388717 137.56394128 -17.23145839 124.61622023 C-17.25951312 111.33063313 -17.2761764 98.04506696 -17.28226548 84.75945145 C-17.28638179 76.56153077 -17.29938276 68.36372303 -17.3237494 60.16583712 C-17.33960742 54.54421406 -17.34440021 48.9226494 -17.34050413 43.30100559 C-17.33858267 40.05759834 -17.34316799 36.81443007 -17.35761642 33.57104874 C-17.37252329 30.0525739 -17.36895972 26.53458388 -17.36076355 23.01609802 C-17.36950207 21.99371377 -17.3782406 20.97132952 -17.38724393 19.91796392 C-17.35099025 14.16724208 -16.80168445 10.06396587 -14 5 C-9.31279878 0.65576472 -6.42413253 -0.53534438 0 0 Z " fill="#030303" transform="translate(816,39)"/>
<path d="M0 0 C3.34778437 -0.0052897 6.69551172 -0.01616169 10.04327774 -0.02827835 C15.32590672 -0.04580609 20.60827341 -0.04646748 25.89091301 -0.03331947 C27.84695475 -0.03029325 29.80301029 -0.03201052 31.75904274 -0.03875542 C34.44701968 -0.04640229 37.13425579 -0.03502248 39.82217789 -0.01848221 C40.60396565 -0.02456277 41.38575342 -0.03064333 42.19123173 -0.03690815 C48.34865702 0.03467432 52.37948859 1.44637591 56.79092789 5.74470139 C60.28554037 10.2743424 62.77172435 15.47174861 65.39801407 20.53196335 C67.03438979 23.67953129 68.69878815 26.81214646 70.36514664 29.94392014 C70.70051941 30.57440765 71.03589218 31.20489517 71.38142776 31.85448837 C79.93216941 47.8583628 89.54468382 63.1485496 99.90030289 78.03376389 C100.31248062 78.62665207 100.72465836 79.21954025 101.14932632 79.83039474 C102.27491828 81.44461046 103.4076598 83.0538342 104.54092789 84.66267014 C108.75579165 90.95771451 109.31054324 96.15476448 107.93545914 103.64704514 C107.76401382 104.4011467 107.59256851 105.15524826 107.41592789 105.93220139 C104.86322128 117.58877734 105.27955386 129.97243507 105.14249039 141.85017014 C105.12812439 143.0417926 105.11375839 144.23341507 105.09895706 145.46114731 C105.04145631 150.42485444 104.98654794 155.38844044 104.9520607 160.3523674 C104.92451486 164.01857583 104.87872374 167.68419036 104.82999039 171.35017014 C104.82673752 172.46893036 104.82348465 173.58769058 104.82013321 174.74035263 C104.73155016 180.33247376 104.58936226 184.58200063 101.35342789 189.36970139 C97.58982787 192.79115594 93.62151282 192.93382879 88.72842789 192.79548264 C85.06572189 192.1388462 83.51971754 190.2806531 81.35342789 187.36970139 C79.11066639 184.00555914 79.10474624 182.90646113 79.11050797 178.97468185 C79.10743134 177.86857559 79.10435471 176.76246933 79.10118484 175.6228447 C79.11196312 173.82304657 79.11196312 173.82304657 79.12295914 171.98688889 C79.12341736 170.74408157 79.12387558 169.50127426 79.12434769 168.22080612 C79.12737426 165.5793827 79.13419814 162.93830527 79.14761734 160.29694748 C79.16764953 156.30946221 79.16812853 152.32208272 79.16788101 148.33454514 C79.21670221 112.77987841 79.21670221 112.77987841 81.35342789 106.36970139 C82.1745718 99.95824378 81.62645761 95.63716707 77.69742203 90.46491623 C77.17140396 89.81474533 76.64538589 89.16457443 76.10342789 88.49470139 C74.98678683 87.01480765 73.87631742 85.53024115 72.77139664 84.04157639 C72.20082535 83.27651779 71.63025406 82.5114592 71.04239273 81.72321701 C68.27386534 77.86536733 65.83581 73.82746855 63.41592789 69.74470139 C62.6863588 68.51457321 62.6863588 68.51457321 61.94205093 67.25959396 C56.43357515 57.89167655 51.08687207 48.42821679 45.79141617 38.93854904 C44.82371381 37.20982845 43.84796195 35.48559189 42.86465836 33.76569748 C42.17654068 32.55454269 42.17654068 32.55454269 41.47452164 31.31892014 C41.06516373 30.60437668 40.65580582 29.88983322 40.23404312 29.15363693 C39.35342789 27.36970139 39.35342789 27.36970139 39.35342789 25.36970139 C28.37870039 25.45588248 17.40409101 25.55135534 6.42953491 25.65722847 C1.32801877 25.70618269 -3.77348581 25.75247522 -8.87508774 25.79157639 C-34.94893523 25.99389823 -60.93651251 26.71638208 -86.97853374 28.0064888 C-101.33973789 28.70831797 -115.71148064 29.10897582 -130.08407211 29.49470139 C-130.84439365 29.51552906 -131.60471519 29.53635674 -132.38807678 29.55781555 C-156.53170355 30.21877343 -180.66653441 30.55833346 -204.81929016 30.55728531 C-207.06533826 30.55720208 -209.31138266 30.55856874 -211.55743027 30.55994797 C-215.73172254 30.56110539 -219.90589353 30.55082744 -224.08016586 30.53767014 C-225.29768539 30.53646667 -226.51520493 30.53526321 -227.76961899 30.53402328 C-249.03828544 30.4171594 -249.03828544 30.4171594 -254.64657211 25.36970139 C-257.01959378 22.44297466 -257.60623837 20.68660934 -258.08407211 16.93220139 C-257.5589104 12.65588459 -256.4066942 10.65200874 -253.64657211 7.36970139 C-249.52788093 4.2632404 -246.46943138 4.0067197 -241.36996078 4.04499435 C-240.65229601 4.04613141 -239.93463123 4.04726847 -239.19521904 4.04843998 C-236.81802832 4.05555113 -234.44156866 4.08380713 -232.06454086 4.11188889 C-230.38845614 4.12051497 -228.7123633 4.12767379 -227.03626633 4.13344955 C-223.48217451 4.14805653 -219.92828872 4.17128526 -216.37429428 4.20133591 C-208.02624963 4.27054894 -199.67803674 4.28715135 -191.32976341 4.30999756 C-188.72002289 4.31863815 -186.11033772 4.33148602 -183.5006218 4.34562302 C-161.96654269 4.45143757 -140.47816424 3.91480487 -118.96749115 2.93316364 C-110.42363288 2.54338992 -101.8792094 2.16787937 -93.33407211 1.80720139 C-92.52561592 1.77306767 -91.71715973 1.73893394 -90.88420486 1.70376587 C-60.59220868 0.43779812 -30.31714393 0.03393683 0 0 Z " fill="#020202" transform="translate(717.6465721130371,665.630298614502)"/>
<path d="M0 0 C0.8548851 0.0062439 1.7097702 0.01248779 2.59056091 0.0189209 C15.05752402 0.17408192 27.51861879 0.77855249 39.97509766 1.28662109 C71.73950839 2.58102795 103.49177556 3.59375 135.28515625 3.59375 C136.05367165 3.59375 136.82218704 3.59375 137.61399078 3.59375 C163.10513429 3.5776746 188.48996001 2.68605074 213.93133545 1.07577515 C219.00613162 0.75983098 224.082284 0.48013384 229.16015625 0.21875 C230.60470184 0.13898926 230.60470184 0.13898926 232.07843018 0.05761719 C234.82576954 -0.08030393 237.57067373 -0.17282434 240.3203125 -0.25 C241.11771347 -0.29459351 241.91511444 -0.33918701 242.73667908 -0.38513184 C248.19798329 -0.46906978 250.89149619 0.98122086 254.84202576 4.72741699 C256.89188076 7.04662321 257.16341308 8.25196966 257.47265625 11.40625 C257.11655551 15.75067898 256.26968041 19.07025938 253.16015625 22.21875 C246.30578854 26.14945972 238.89598075 25.99416228 231.16796875 26.38671875 C229.67360581 26.47142837 228.17929286 26.55702395 226.68502808 26.64344788 C222.70555812 26.86937215 218.72534349 27.07712754 214.74462891 27.27980042 C212.28704878 27.4061527 209.82978943 27.5375716 207.37255859 27.67053223 C182.61267851 29.00509853 157.95615647 29.6537953 133.16015625 29.21875 C133.16237686 30.15374832 133.16459747 31.08874664 133.16688538 32.05207825 C133.18733249 40.94942439 133.20223079 49.84676565 133.21196842 58.74413013 C133.21714322 63.31616523 133.2241401 67.88818106 133.2355957 72.46020508 C133.24661989 76.8887672 133.25247353 81.31731104 133.25503349 85.74588585 C133.25685314 87.41879247 133.2604043 89.09169831 133.26588631 90.76459694 C133.39572113 132.10447003 133.39572113 132.10447003 128.22265625 140.28125 C124.29346662 143.97230693 121.73716567 144.76956226 116.51953125 144.67578125 C112.44715661 143.88692722 109.73908079 141.37332734 107.16015625 138.21875 C106.21251114 135.37581468 106.05683447 133.76621487 106.11582947 130.83381653 C106.13128311 129.93779221 106.14673676 129.04176788 106.16265869 128.11859131 C106.19610382 126.64800262 106.19610382 126.64800262 106.23022461 125.14770508 C106.24958572 124.11338852 106.26894684 123.07907196 106.28889465 122.01341248 C106.35425755 118.58825063 106.42710598 115.16329042 106.5 111.73828125 C106.54672965 109.36603176 106.5929935 106.99377305 106.6388092 104.62150574 C106.76075001 98.37263154 106.88903375 92.12390289 107.01861572 85.87518311 C107.1496874 79.50084862 107.27479179 73.12639738 107.40039062 66.75195312 C107.64778854 54.24076385 107.90168149 41.72971508 108.16015625 29.21875 C106.86825378 29.19565765 105.57635132 29.17256531 104.24530029 29.14877319 C78.38234982 28.68045589 52.5291837 28.15390234 26.68554688 27.02636719 C23.00093252 26.86634638 19.31580009 26.7250474 15.63031387 26.58678627 C12.71142439 26.4742702 9.79316045 26.34940798 6.87493134 26.22098923 C4.86279201 26.13544871 2.850121 26.0627137 0.83746338 25.99038696 C-0.36541321 25.93377899 -1.56828979 25.87717102 -2.80761719 25.81884766 C-3.85673279 25.77523102 -4.90584839 25.73161438 -5.98675537 25.68667603 C-9.24742643 25.15190365 -11.18091185 24.15737762 -13.83984375 22.21875 C-16.47808717 18.30687183 -17.43997533 14.83218427 -17.26171875 10.1796875 C-16.37615547 6.06345816 -13.58658388 3.41350098 -10.15795898 1.06835938 C-6.79035688 -0.16589606 -3.53764582 -0.05067765 0 0 Z " fill="#030303" transform="translate(37.83984375,693.78125)"/>
</svg>
