<?xml version="1.0" encoding="UTF-8"?>
<svg version="1.1" xmlns="http://www.w3.org/2000/svg" width="1198" height="1374">
<path d="M0 0 C395.34 0 790.68 0 1198 0 C1198 453.42 1198 906.84 1198 1374 C802.66 1374 407.32 1374 0 1374 C0 920.58 0 467.16 0 0 Z " fill="#FEFEFE" transform="translate(0,0)"/>
<path d="M0 0 C0.9698584 0.26006836 1.9397168 0.52013672 2.93896484 0.78808594 C50.49218325 13.65904152 96.48062277 34.34962202 136 64 C136.66451172 64.49467773 137.32902344 64.98935547 138.01367188 65.49902344 C148.01050643 72.95763508 157.68615275 80.70316612 167 89 C167.52480957 89.46696289 168.04961914 89.93392578 168.59033203 90.41503906 C175.5566864 96.65117215 182.24926534 103.15441821 188.875 109.75 C189.57665283 110.44697998 190.27830566 111.14395996 191.0012207 111.86206055 C195.53704045 116.41190137 199.83623079 121.10826534 204 126 C204.54414551 126.63744141 205.08829102 127.27488281 205.64892578 127.93164062 C257.40246565 189.00667249 290.01763648 263.60905133 300 343 C300.14033661 344.10909729 300.14033661 344.10909729 300.2835083 345.24060059 C301.97712198 359.04929101 302.32428569 372.72341414 302.25 386.625 C302.24656586 387.68059113 302.24313171 388.73618225 302.23959351 389.82376099 C302.17941119 405.62572462 301.95206755 421.2996285 300 437 C299.77401123 438.85310791 299.77401123 438.85310791 299.54345703 440.74365234 C291.51918775 504.97188513 267.95337272 566.81690031 231 620 C230.4117041 620.85634033 230.4117041 620.85634033 229.81152344 621.72998047 C223.50630955 630.88878053 216.68246889 639.56344187 209.56884766 648.10644531 C208.16917532 649.79581018 206.79096898 651.49991029 205.41796875 653.2109375 C198.45524804 661.74627043 190.69965006 669.51283977 182.9375 677.3125 C182.38268951 677.87257751 181.82787903 678.43265503 181.2562561 679.00970459 C174.15922473 686.15873798 166.89091216 692.72677767 159 699 C157.89809978 699.93469458 156.80177485 700.87606468 155.71484375 701.828125 C121.08054424 732.02962387 78.95833505 754.34398978 36 770 C34.97165039 770.37495605 33.94330078 770.74991211 32.88378906 771.13623047 C11.04627587 778.98508609 -11.28451892 784.38297474 -34.125 788.3125 C-35.19423203 788.49743011 -35.19423203 788.49743011 -36.2850647 788.68609619 C-41.18086361 789.52406545 -46.08488042 790.28465497 -51 791 C-51.66125885 791.09998291 -52.3225177 791.19996582 -53.0038147 791.30297852 C-68.23725622 793.54598483 -83.57273847 793.39721618 -98.9375 793.375 C-99.62259518 793.3749081 -100.30769035 793.37481621 -101.01354599 793.37472153 C-122.89918469 793.37092721 -144.38758021 792.70352968 -166 789 C-167.14452637 788.80744629 -168.28905273 788.61489258 -169.46826172 788.41650391 C-176.69953181 787.16294412 -183.85477371 785.67265201 -191 784 C-191.92538574 783.78649902 -192.85077148 783.57299805 -193.80419922 783.35302734 C-236.95682405 773.22483021 -278.60479206 755.77783465 -316 732 C-316.65967773 731.58186035 -317.31935547 731.1637207 -317.99902344 730.73291016 C-336.69960478 718.7866519 -354.10414542 705.20842751 -370.48828125 690.265625 C-372.56646961 688.39105385 -374.67036444 686.55857296 -376.7890625 684.73046875 C-381.05233166 681.00651982 -385.07257825 677.07564147 -389.0625 673.0625 C-389.73087891 672.39798828 -390.39925781 671.73347656 -391.08789062 671.04882812 C-395.59738548 666.53056846 -399.84098436 661.84067874 -404 657 C-404.96125853 655.90538769 -405.92344816 654.81159209 -406.88671875 653.71875 C-425.41926178 632.5116092 -441.18535391 609.04143141 -454.70654297 584.35644531 C-455.89347732 582.1940651 -457.10205455 580.04549117 -458.31640625 577.8984375 C-483.71711487 532.31233206 -498.94483411 477.84424622 -503 426 C-503.05784668 425.32388672 -503.11569336 424.64777344 -503.17529297 423.95117188 C-507.50975682 372.14339622 -501.62303615 319.51515648 -486 270 C-485.73106934 269.12504883 -485.46213867 268.25009766 -485.18505859 267.34863281 C-478.97907646 247.20860762 -470.83813667 227.61187919 -461.02441406 208.95898438 C-459.91154453 206.83084684 -458.82644299 204.68972312 -457.7421875 202.546875 C-436.75375542 161.41811482 -406.6241303 121.20231901 -371.3984375 91.05859375 C-369.49114228 89.42155046 -367.605444 87.76688403 -365.7265625 86.09765625 C-305.99934698 33.26235075 -229.39560394 -0.29471846 -150.38378906 -9.71191406 C-148.12537562 -9.98484809 -145.87138968 -10.28037016 -143.6171875 -10.5859375 C-96.11292423 -16.97619071 -46.19698898 -12.59426192 0 0 Z " fill="#4764F6" transform="translate(696,171)"/>
<path d="M0 0 C3.1415258 1.38146252 5.14398938 2.9533767 7.4765625 5.45703125 C8.1380127 6.15111084 8.79946289 6.84519043 9.48095703 7.56030273 C10.18849121 8.30352783 10.89602539 9.04675293 11.625 9.8125 C20.02280731 18.4164832 29.04260843 25.3161465 39 32 C40.30248783 32.89003335 41.60458769 33.78063478 42.90625 34.671875 C46.57257755 37.16404108 50.27567658 39.59552798 54 42 C54.61488281 42.39751465 55.22976563 42.7950293 55.86328125 43.20458984 C74.34671162 55.09157858 93.67629675 65.55898936 113 76 C110.6701696 83.53815433 107.58532316 90.57801275 104.3125 97.75 C99.41139881 108.6313779 94.88982935 119.57740004 90.80664062 130.79003906 C90.07676366 132.78968987 89.33083348 134.78229839 88.578125 136.7734375 C85.43986545 145.2389895 82.97816972 153.83968629 80.65826416 162.55726624 C80.21882055 164.18798504 79.77035177 165.81629807 79.31297302 167.44207764 C73.80416089 187.12461267 70.98932353 207.15474931 68.8125 227.4375 C68.5641511 229.67654344 68.31480359 231.91547635 68.06445312 234.15429688 C67.60305331 238.29550585 67.14701285 242.43721159 66.69848633 246.57983398 C65.8127197 254.72139467 64.90439033 262.86048705 64 271 C2.95 271 -58.1 271 -121 271 C-121 187.50846352 -89.64883604 106.07469945 -38 41 C-37.21109375 39.99710937 -36.4221875 38.99421875 -35.609375 37.9609375 C-30.64670109 31.76652078 -25.34097072 25.93679045 -19.921875 20.14453125 C-17.31098405 17.35067369 -14.77646481 14.49558674 -12.25 11.625 C-8.45607335 7.38024111 -4.39333528 3.61522413 0 0 Z " fill="#FEFEFE" transform="translate(334,282)"/>
<path d="M0 0 C61.05 0 122.1 0 185 0 C185 37.32354388 179.29225337 74.67342963 167 110 C166.50693359 111.44173584 166.50693359 111.44173584 166.00390625 112.91259766 C161.06502964 127.3018247 155.57607725 141.28006176 149 155 C148.67177246 155.68819824 148.34354492 156.37639648 148.00537109 157.08544922 C145.75637211 161.76943747 143.40746566 166.39566847 141 171 C140.60619141 171.75716309 140.21238281 172.51432617 139.80664062 173.29443359 C130.43267614 191.18853246 119.47944236 208.10821012 107 224 C106.360625 224.81984375 105.72125 225.6396875 105.0625 226.484375 C94.14328004 240.3095164 82.55519162 253.6298972 70 266 C66.15140393 264.43567458 63.89186866 261.99530156 61.0625 259 C55.21018583 252.98671263 48.78663102 247.91333244 42 243 C41.35256836 242.52949219 40.70513672 242.05898438 40.03808594 241.57421875 C16.68464274 224.67502071 -7.86457356 210.52430497 -33.46533203 197.31591797 C-38.67865464 194.60932879 -43.84256278 191.81134774 -49 189 C-48.3895178 185.31024064 -47.34792878 182.25613214 -45.76953125 178.87109375 C-45.30313232 177.85450684 -44.8367334 176.83791992 -44.35620117 175.79052734 C-43.59206909 174.13077881 -43.59206909 174.13077881 -42.8125 172.4375 C-31.65535554 147.69944698 -21.24464978 122.46602245 -15 96 C-14.7431543 94.94022949 -14.48630859 93.88045898 -14.22167969 92.78857422 C-10.17141427 75.79094368 -7.75308886 58.73442254 -5.82373047 41.390625 C-4.26342682 27.49049309 -2.13422686 13.87247459 0 0 Z " fill="#FEFEFE" transform="translate(792,570)"/>
<path d="M0 0 C60.72 0 121.44 0 184 0 C184 9.57 184 19.14 184 29 C185.39010825 63.52102158 193.4293529 96.63510779 204.14746094 129.36425781 C204.98801575 131.96294903 205.80009189 134.56870084 206.6015625 137.1796875 C208.92855693 144.75184119 211.33332811 152.14321717 214.5 159.4140625 C216.73148728 164.74871177 218.76942192 170.1533703 220.8125 175.5625 C221.22218018 176.6352417 221.63186035 177.7079834 222.05395508 178.81323242 C222.43447021 179.82490479 222.81498535 180.83657715 223.20703125 181.87890625 C223.5522583 182.7922876 223.89748535 183.70566895 224.25317383 184.64672852 C225 187 225 187 225 190 C224.24195068 190.35602295 223.48390137 190.7120459 222.70288086 191.07885742 C200.31145314 201.63556386 178.23885211 212.62508415 158 227 C156.97003906 227.72445312 155.94007813 228.44890625 154.87890625 229.1953125 C147.02820807 234.89191794 139.98283559 241.29398644 133 248 C132.15050781 248.80824219 131.30101562 249.61648438 130.42578125 250.44921875 C125.45106925 255.28879426 121.11031557 260.40944217 117 266 C110.24472458 262.96822062 105.67508154 256.72331306 100.93359375 251.2109375 C98.75404019 248.7187611 96.5022672 246.30161332 94.25 243.875 C35.19383034 178.93993562 0 87.60627218 0 0 Z " fill="#FEFEFE" transform="translate(213,570)"/>
<path d="M0 0 C3.1750145 1.39313196 5.20956941 3.00438614 7.57421875 5.52734375 C8.23695801 6.23109131 8.89969727 6.93483887 9.58251953 7.65991211 C10.27716309 8.41151611 10.97180664 9.16312012 11.6875 9.9375 C12.76813721 11.0987439 12.76813721 11.0987439 13.87060547 12.28344727 C19.16156979 18.00706996 24.20212221 23.85549096 29 30 C30.07627254 31.34679418 31.15314621 32.69310808 32.23046875 34.0390625 C40.40986422 44.32689923 47.95666109 54.90400821 55 66 C55.38961914 66.61343262 55.77923828 67.22686523 56.18066406 67.85888672 C58.89697056 72.17745507 61.47644634 76.56638572 64 81 C64.48581543 81.85271484 64.97163086 82.70542969 65.47216797 83.58398438 C91.67059822 129.93319246 107.69481391 180.62581411 113.1875 233.5625 C113.27153076 234.32771973 113.35556152 235.09293945 113.44213867 235.88134766 C114.30790138 244.9770039 114 253.74434262 114 263 C53.28 263 -7.44 263 -70 263 C-70 252.11 -70 241.22 -70 230 C-70.28657869 224.42685986 -70.59306546 219.02283728 -71.1875 213.5 C-71.38714355 211.53498535 -71.38714355 211.53498535 -71.59082031 209.53027344 C-72.90325773 197.16966261 -75.17118775 185.09490179 -78 173 C-78.25797363 171.8764209 -78.51594727 170.7528418 -78.78173828 169.59521484 C-82.35366367 154.18099943 -86.680621 139.19304605 -91.88037109 124.25488281 C-93.12199889 120.64533597 -94.32535448 117.02387423 -95.51953125 113.3984375 C-95.95359152 112.08226821 -96.38767362 110.76610613 -96.82177734 109.44995117 C-97.03727234 108.79658783 -97.25276733 108.14322449 -97.47479248 107.47006226 C-100.78027097 97.45480065 -104.17275292 87.51463903 -108.13671875 77.73828125 C-109 75 -109 75 -108 72 C-105.91235352 70.7800293 -105.91235352 70.7800293 -103.12890625 69.57421875 C-102.09258057 69.11466797 -101.05625488 68.65511719 -99.98852539 68.18164062 C-98.85793701 67.68857422 -97.72734863 67.19550781 -96.5625 66.6875 C-60.98179424 50.70192982 -24.86520743 30.89313651 0 0 Z " fill="#FEFEFE" transform="translate(863,290)"/>
<path d="M0 0 C0.15855469 0.58265625 0.31710937 1.1653125 0.48046875 1.765625 C1.84172565 6.54882605 3.40926766 11.11732734 5.375 15.6875 C7.60910801 20.9004187 9.44944813 26.19248336 11.19702148 31.58178711 C12.32294854 35.0327778 13.52748073 38.40557413 14.9375 41.75 C21.25090842 57.23047745 25.13124118 73.64621367 29.19897461 89.81933594 C29.73272651 91.93872628 30.27260129 94.05658407 30.81860352 96.17285156 C32.32242632 102.04699977 33.6481086 107.88020977 34.5625 113.875 C34.74582886 115.07346558 34.74582886 115.07346558 34.93286133 116.29614258 C38.21583308 138.61733268 38.73127723 160.49339601 37 183 C-19.43 183 -75.86 183 -134 183 C-134 130.53 -134 78.06 -134 24 C-124.76 23.34 -115.52 22.68 -106 22 C-83.43250466 20.36297961 -60.81459128 18.29248777 -39 12 C-37.57349121 11.5987793 -37.57349121 11.5987793 -36.11816406 11.18945312 C-32.88869536 10.28094762 -29.66246618 9.36185644 -26.4375 8.4375 C-24.90089722 7.99796997 -24.90089722 7.99796997 -23.33325195 7.54956055 C-18.0385682 6.00169578 -13.01250874 4.30429728 -8 2 C-4.97232299 0.69259402 -3.31548235 0 0 0 Z " fill="#FEFEFE" transform="translate(738,370)"/>
<path d="M0 0 C1.89013651 0.00138269 1.89013651 0.00138269 3.8184576 0.00279331 C4.86717042 0.00151167 4.86717042 0.00151167 5.93706936 0.00020415 C8.29712931 -0.00145268 10.65711933 0.00407399 13.01717281 0.00952244 C14.70202794 0.00980429 16.38688319 0.00964661 18.07173824 0.00907993 C22.66038632 0.00879189 27.2490085 0.01468972 31.83765054 0.02165389 C36.62762812 0.0278863 41.41760623 0.02849114 46.20758724 0.0296793 C55.28467211 0.03279295 64.36174501 0.04100679 73.43882459 0.05102879 C85.70004109 0.06427382 97.96126084 0.06968956 110.22248268 0.07553101 C129.55045803 0.08494666 148.8784081 0.10486535 168.2063818 0.12304783 C168.2063818 51.93304783 168.2063818 103.74304783 168.2063818 157.12304783 C151.3763818 158.11304783 151.3763818 158.11304783 134.2063818 159.12304783 C102.54306923 162.41116106 73.74803458 168.86006738 44.14363766 180.1108408 C41.49452619 181.02375046 38.96434908 181.65429862 36.2063818 182.12304783 C34.69454473 178.13956238 33.18291568 174.15599808 31.67146969 170.17236423 C31.15850442 168.82045513 30.64548477 167.46856666 30.13240719 166.11670017 C28.90954892 162.8946413 27.68729245 159.67235746 26.4666357 156.44946384 C25.76214821 154.58998262 25.05684027 152.73080986 24.34847164 150.87280369 C12.79694705 120.416223 4.01284024 89.54533242 -1.5436182 57.43554783 C-1.71715824 56.44953587 -1.71715824 56.44953587 -1.89420414 55.44360447 C-3.80913092 43.77797526 -3.95591173 32.03285275 -3.9239893 20.2436533 C-3.91853177 17.83490064 -3.92401988 15.4263268 -3.93033695 13.01757908 C-3.92967773 11.48502658 -3.92839982 9.9524742 -3.9264307 8.41992283 C-3.92845493 7.70028355 -3.93047916 6.98064426 -3.93256474 6.23919773 C-3.90352989 0.17193505 -3.90352989 0.17193505 0 0 Z " fill="#FEFEFE" transform="translate(417.7936182022095,569.8769521713257)"/>
<path d="M0 0 C3.96320194 1.20354905 7.56161201 2.72838353 11.24658203 4.61352539 C23.303737 10.70087526 36.01041953 14.44101543 49 18 C50.15709473 18.32419922 51.31418945 18.64839844 52.50634766 18.98242188 C76.23240082 25.48020307 97.85411648 26.24563603 123 28 C123 80.47 123 132.94 123 187 C66.57 187 10.14 187 -48 187 C-46.87691833 171.27685664 -46.87691833 171.27685664 -46.09765625 165.80859375 C-45.84713501 164.00684692 -45.84713501 164.00684692 -45.59155273 162.16870117 C-45.41696533 160.93740479 -45.24237793 159.7061084 -45.0625 158.4375 C-43.83089308 149.53351552 -42.70323307 140.64530772 -41.9375 131.6875 C-40.68107073 117.39338077 -37.94535626 103.79380238 -34 90 C-33.6803125 88.86175781 -33.360625 87.72351563 -33.03125 86.55078125 C-32.39815179 84.31196217 -31.75774981 82.07519218 -31.10913086 79.84082031 C-30.37322568 77.29244694 -29.64929758 74.74058256 -28.93774414 72.18530273 C-26.02397672 61.83053096 -22.42982658 51.89511738 -18.375 41.9375 C-18.07374207 41.18995453 -17.77248413 40.44240906 -17.46209717 39.67221069 C-12.05394148 26.25240182 -6.2405566 13.05564677 0 0 Z " fill="#FEFEFE" transform="translate(463,366)"/>
<path d="M0 0 C56.1 0 112.2 0 170 0 C170 5.05691038 169.97591238 9.14417482 169.23046875 13.9921875 C169.06546875 15.09618896 168.90046875 16.20019043 168.73046875 17.33764648 C168.55128906 18.50497314 168.37210938 19.6722998 168.1875 20.875 C166.76954729 30.38189862 165.52718473 39.88080854 164.5 49.4375 C161.14689266 79.64038781 153.06215672 108.13253682 141.875 136.3125 C141.54462738 137.14550629 141.21425476 137.97851257 140.87387085 138.83676147 C138.59918174 144.56455664 136.30661384 150.28499038 134 156 C133.72597351 156.6796582 133.45194702 157.35931641 133.1696167 158.05957031 C131.58100995 161.99034889 129.95939947 165.90581965 128.3125 169.8125 C127.92755371 170.75327393 127.54260742 171.69404785 127.14599609 172.66333008 C126.7845752 173.50275146 126.4231543 174.34217285 126.05078125 175.20703125 C125.74825439 175.9235083 125.44572754 176.63998535 125.1340332 177.37817383 C124 179 124 179 122.15039062 179.84521484 C119.4476291 180.03975967 117.99307932 179.41481249 115.54296875 178.26953125 C114.25579956 177.68582764 114.25579956 177.68582764 112.94262695 177.09033203 C112.03343506 176.66864746 111.12424316 176.24696289 110.1875 175.8125 C102.69535839 172.46104066 95.52137089 169.73099814 87.51953125 167.8515625 C84.75263626 167.18210289 82.10465204 166.41720517 79.39453125 165.5625 C73.30696246 163.71088604 67.12443417 162.54002685 60.875 161.375 C59.74707031 161.1584375 58.61914062 160.941875 57.45703125 160.71875 C38.07588634 157.04653307 20.63695127 157.51592378 0 157 C0 105.19 0 53.38 0 0 Z " fill="#FEFEFE" transform="translate(604,570)"/>
<path d="M0 0 C3.64102358 0.59839678 6.5907406 1.59805674 9.89453125 3.23046875 C10.83796387 3.69654541 11.78139648 4.16262207 12.75341797 4.64282227 C13.76291504 5.15256592 14.77241211 5.66230957 15.8125 6.1875 C17.39635498 6.98401978 17.39635498 6.98401978 19.01220703 7.79663086 C30.62749804 13.71611075 41.82721793 20.29235821 53 27 C54.63651986 27.97038758 56.27322716 28.94045915 57.91015625 29.91015625 C77.88077601 41.82896114 96.52551189 55.52551189 113 72 C113 72.99 113 73.98 113 75 C111.2265625 76.76953125 111.2265625 76.76953125 108.625 78.8125 C107.61179687 79.61042969 106.59859375 80.40835938 105.5546875 81.23046875 C104.98588867 81.67181152 104.41708984 82.1131543 103.83105469 82.56787109 C101.89354465 84.08326228 99.98163993 85.62752257 98.0703125 87.17578125 C60.65435171 117.21662602 16.22203682 140.35654115 -30 153.42871094 C-32.23638832 154.06752303 -34.46089719 154.74196495 -36.6875 155.4140625 C-63.59707558 163.33541845 -92.8662593 168.93953123 -121 168 C-119.66130947 165.00617156 -118.20221044 162.97944329 -115.83984375 160.71484375 C-115.2156958 160.10761475 -114.59154785 159.50038574 -113.94848633 158.87475586 C-113.28486084 158.23546143 -112.62123535 157.59616699 -111.9375 156.9375 C-106.68976977 151.78785818 -101.78858498 146.57790047 -97.23046875 140.796875 C-94.61385767 137.5158005 -91.87545024 134.35624153 -89.125 131.1875 C-83.18481017 124.29729082 -77.54643819 117.20917833 -72 110 C-71.3910791 109.21173828 -70.7821582 108.42347656 -70.15478516 107.61132812 C-61.65910613 96.60237025 -53.37758418 85.48566083 -45.44433594 74.06494141 C-43.95968511 71.94236252 -42.45553593 69.8349177 -40.9453125 67.73046875 C-34.24236575 58.37484837 -27.94313083 48.85561195 -22 39 C-21.60103516 38.3409668 -21.20207031 37.68193359 -20.79101562 37.00292969 C-13.47814064 24.87957252 -6.71518463 12.46186646 0 0 Z " fill="#FEFEFE" transform="translate(734,775)"/>
<path d="M0 0 C1.46598238 2.10546201 2.71278711 4.15167804 3.953125 6.38671875 C4.75500357 7.7759287 5.56050262 9.16305356 6.36914062 10.54833984 C6.79590088 11.27954041 7.22266113 12.01074097 7.66235352 12.76409912 C9.88828088 16.48477795 12.27260061 20.09651688 14.671875 23.70703125 C15.16194031 24.4447879 15.65200562 25.18254456 16.15692139 25.94265747 C17.68434768 28.23503324 19.21659605 30.52411919 20.75 32.8125 C21.27879761 33.60370239 21.80759521 34.39490479 22.35241699 35.21008301 C30.00065817 46.64863369 37.7451465 57.98779016 46 69 C47.00656911 70.35151879 48.01307835 71.70308217 49.01953125 73.0546875 C51.50496213 76.38411436 54.00401557 79.70304685 56.50732422 83.01904297 C58.03155934 85.04188297 59.5498742 87.06903594 61.06640625 89.09765625 C67.31126783 97.45065581 73.60447889 105.76161766 80 114 C80.65500488 114.84643066 80.65500488 114.84643066 81.32324219 115.70996094 C86.76273065 122.73156123 92.31034031 129.63183111 98.08349609 136.38232422 C100.81368044 139.57847046 103.46609272 142.81953371 106.0625 146.125 C109.74555187 150.78969173 113.72923484 155.12981473 117.80078125 159.45703125 C119.87842547 161.85942271 121.46262563 164.22874587 123 167 C113.94338127 167.29532452 105.19298772 166.19326631 96.25 164.9375 C95.46597809 164.82873535 94.68195618 164.7199707 93.87417603 164.60791016 C73.94908657 161.81037946 54.02437205 157.92161659 35.05078125 151.09375 C32.0989957 150.03549142 29.14129455 149.16639204 26.125 148.3125 C-18.52219689 134.61268775 -60.91016538 109.79783484 -96.5625 79.8125 C-97.35781128 79.14432251 -97.35781128 79.14432251 -98.16918945 78.46264648 C-100.54803634 76.41641642 -102.24270575 74.63594137 -104 72 C-88.57987445 45.74062301 -32.01448484 0 0 0 Z " fill="#FEFEFE" transform="translate(447,776)"/>
<path d="M0 0 C25.84253899 -1.63407155 54.58788888 6.1681416 79 14 C80.17272461 14.37366699 81.34544922 14.74733398 82.55371094 15.13232422 C135.8361143 32.23114862 182.82352423 59.27185317 225 96 C214.76835109 115.88195414 189.98927708 130.43781761 171 141 C170.12746582 141.48823242 169.25493164 141.97646484 168.35595703 142.47949219 C157.51195512 148.52128157 146.57854997 154.3381378 135.375 159.6875 C134.51696777 160.09734131 133.65893555 160.50718262 132.77490234 160.92944336 C128.5703734 162.90292046 124.42792803 164.57274783 120 166 C119.5464917 165.17717529 119.0929834 164.35435059 118.62573242 163.5065918 C113.30225909 153.96034252 107.41995688 144.87189001 101.3125 135.8125 C100.32997476 134.34856725 99.34771824 132.88445411 98.36572266 131.42016602 C95.99886997 127.89409109 93.62574853 124.37229667 91.24969482 120.85241699 C90.13492242 119.1999949 89.02261325 117.54591165 87.91064453 115.89160156 C81.54748143 106.42826016 74.99139152 97.16424879 68.08984375 88.0859375 C65.31425303 84.43210815 62.59720865 80.73777126 59.88818359 77.03442383 C49.85055346 63.31781183 39.44782117 49.91280666 28.68334961 36.75927734 C24.77445808 31.97849859 20.97041434 27.12477564 17.1875 22.24414062 C13.01656093 16.91732547 8.57618205 11.83485214 4.0625 6.79663086 C0 2.21087394 0 2.21087394 0 0 Z " fill="#FEFEFE" transform="translate(626,181)"/>
<path d="M0 0 C-3.37386109 3.9794259 -6.79990889 7.89231222 -10.3125 11.75 C-14.21040645 16.06368314 -17.90335262 20.50755863 -21.55859375 25.02734375 C-24.27720803 28.3375285 -27.07121916 31.57461422 -29.875 34.8125 C-35.24698504 41.04528793 -40.39312555 47.42157058 -45.41308594 53.94042969 C-46.54894812 55.41460406 -47.68798412 56.88633513 -48.82910156 58.35644531 C-57.70139659 69.79273193 -66.23325897 81.37896637 -74.27246094 93.41601562 C-76.16504528 96.24686818 -78.07064461 99.06873411 -79.9765625 101.890625 C-93.03159119 121.27587834 -105.69103401 140.98556933 -116 162 C-122.26370079 160.03448993 -127.82261366 157.1604324 -133.625 154.125 C-134.73077393 153.54782227 -135.83654785 152.97064453 -136.97583008 152.37597656 C-147.22913147 146.97026679 -157.1680513 141.1329327 -167 135 C-167.63405762 134.60893066 -168.26811523 134.21786133 -168.92138672 133.81494141 C-183.31411309 124.92381804 -197.13420762 114.98773209 -210 104 C-210.74765625 103.37480469 -211.4953125 102.74960937 -212.265625 102.10546875 C-216.29793208 98.67800774 -219.74287751 95.17318819 -223 91 C-218.63691318 80.02995315 -201.42316187 71.40859805 -192 65 C-191.00105713 64.31768311 -191.00105713 64.31768311 -189.98193359 63.62158203 C-151.28402922 37.37222286 -107.78636575 18.79561432 -62.25 8.375 C-61.42036743 8.18334259 -60.59073486 7.99168518 -59.73596191 7.79421997 C-48.13944454 5.13459895 -36.5549755 2.93040688 -24.75 1.4375 C-23.51540039 1.2813623 -22.28080078 1.12522461 -21.00878906 0.96435547 C-13.97743754 0.15484409 -7.07569567 -0.1859661 0 0 Z " fill="#FEFEFE" transform="translate(572,180)"/>
<path d="M0 0 C7.88290479 6.75677554 7.88290479 6.75677554 10.140625 9.375 C10.90137329 10.25260986 10.90137329 10.25260986 11.67749023 11.14794922 C12.19641846 11.75912598 12.71534668 12.37030273 13.25 13 C13.81082275 13.65371582 14.37164551 14.30743164 14.94946289 14.98095703 C19.01544111 19.75478692 22.92881347 24.6342101 26.7668457 29.59228516 C30.39365492 34.26938912 34.1512513 38.82645391 37.9375 43.375 C42.96110326 49.42852707 47.78343631 55.59148872 52.46289062 61.9140625 C56.20593483 66.9674194 60.05414301 71.92890813 63.9375 76.875 C70.31591943 85.02505672 76.39902278 93.36103528 82.40869141 101.78515625 C83.95828722 103.94194257 85.52767144 106.08253278 87.10546875 108.21875 C99.43451921 124.96325825 110.91081658 142.40375976 121.43359375 160.33984375 C122.56511833 162.2614603 123.76301134 164.14451702 125 166 C124.91577148 168.05322266 124.91577148 168.05322266 124 170 C122.00415039 171.18505859 122.00415039 171.18505859 119.34765625 172.1484375 C118.35717285 172.51106689 117.36668945 172.87369629 116.34619141 173.24731445 C115.26257324 173.61945068 114.17895508 173.99158691 113.0625 174.375 C111.94020996 174.7671167 110.81791992 175.1592334 109.66162109 175.56323242 C74.31521585 187.55602624 37.10113861 191 0 191 C0 127.97 0 64.94 0 0 Z " fill="#FEFEFE" transform="translate(604,185)"/>
<path d="M0 0 C0 62.37 0 124.74 0 189 C-1.65 187.35 -3.3 185.7 -5 184 C-5.63421875 183.38898438 -6.2684375 182.77796875 -6.921875 182.1484375 C-11.51001385 177.69755066 -15.57665195 172.97333154 -19.578125 167.9921875 C-22.19109141 164.76390965 -24.8686197 161.59812797 -27.5625 158.4375 C-34.22953793 150.58778552 -40.61529352 142.54340979 -46.8762207 134.36572266 C-49.31982949 131.17562091 -51.77888976 127.998701 -54.2578125 124.8359375 C-62.71541135 114.03971618 -70.9260049 103.0855768 -79 92 C-79.55042969 91.2471875 -80.10085938 90.494375 -80.66796875 89.71875 C-92.5625065 73.44498814 -103.94921006 56.85906955 -114.79833984 39.87011719 C-115.93236463 38.10525944 -117.08172763 36.35171324 -118.23828125 34.6015625 C-118.88152344 33.61929688 -119.52476562 32.63703125 -120.1875 31.625 C-121.01314453 30.37589844 -121.01314453 30.37589844 -121.85546875 29.1015625 C-123 27 -123 27 -123 24 C-99.76769065 14.76562275 -76.93128473 7.38652325 -52.07397461 4.11425781 C-49.30184683 3.74859477 -46.53283669 3.36396746 -43.76367188 2.9765625 C-29.08348465 0.95872788 -14.85125897 0 0 0 Z " fill="#FEFEFE" transform="translate(586,744)"/>
<path d="M0 0 C0.66 0 1.32 0 2 0 C2 60.72 2 121.44 2 184 C-34.18562743 184 -69.78474212 179.04901781 -103 163.75 C-103.69424072 163.43305176 -104.38848145 163.11610352 -105.10375977 162.78955078 C-107.66693226 161.53222013 -109.6483927 160.51098039 -111.2878418 158.12841797 C-112 156 -112 156 -111.48364258 154.08740234 C-111.12423584 153.42691895 -110.7648291 152.76643555 -110.39453125 152.0859375 C-109.99403564 151.33473633 -109.59354004 150.58353516 -109.1809082 149.80957031 C-108.7293335 149.00616211 -108.27775879 148.20275391 -107.8125 147.375 C-107.12063599 146.1080127 -107.12063599 146.1080127 -106.41479492 144.81542969 C-90.00971404 115.09074152 -70.48606482 87.21017155 -49.80224609 60.34130859 C-48.24628157 58.31994584 -46.69413858 56.29576789 -45.14453125 54.26953125 C-42.77350848 51.17154179 -40.38820737 48.08476786 -38 45 C-37.57976562 44.45359863 -37.15953125 43.90719727 -36.7265625 43.34423828 C-27.31523341 31.11716761 -17.25351055 19.50878957 -6.87109375 8.09765625 C-5.20641797 6.23141221 -3.62482492 4.32677403 -2.0625 2.375 C-1.381875 1.59125 -0.70125 0.8075 0 0 Z " fill="#FEFEFE" transform="translate(584,192)"/>
<path d="M0 0 C46.09478711 1.18191762 46.09478711 1.18191762 59 4 C59.96470215 4.20254395 60.9294043 4.40508789 61.92333984 4.61376953 C80.06328642 8.47901462 97.30423013 13.85846728 114 22 C113.39618565 26.7298791 111.36366183 30.55308587 109.125 34.6875 C108.72063721 35.43878174 108.31627441 36.19006348 107.8996582 36.96411133 C87.14891513 75.07780192 60.86057993 110.90638193 33.34863281 144.3515625 C31.49996708 146.61119158 29.68711681 148.89851035 27.875 151.1875 C20.98454558 159.80777561 13.83870607 168.18423272 6.375 176.3125 C5.85389648 176.88202393 5.33279297 177.45154785 4.79589844 178.03833008 C3.55256648 179.37959003 2.27924365 180.69294671 1 182 C0.67 182 0.34 182 0 182 C0 121.94 0 61.88 0 0 Z " fill="#FEFEFE" transform="translate(604,744)"/>
<path d="M0 0 C17.84202562 8.30508542 34.05855797 26.99649621 47.875 40.75 C48.57657227 41.44689941 49.27814453 42.14379883 50.00097656 42.86181641 C54.53687923 47.41173875 58.83615532 52.10817668 63 57 C63.54414551 57.63744141 64.08829102 58.27488281 64.64892578 58.93164062 C73.66150042 69.56749828 82.02337176 80.57023077 90 92 C90.51208008 92.72654785 91.02416016 93.4530957 91.55175781 94.20166016 C93.00589944 96.27159102 94.44360353 98.35179471 95.875 100.4375 C96.31038086 101.05834473 96.74576172 101.67918945 97.19433594 102.31884766 C98.3671875 104.05859375 98.3671875 104.05859375 100 107 C99.505 108.485 99.505 108.485 99 110 C98.6596875 109.4738208 98.319375 108.9476416 97.96875 108.40551758 C79.9201443 80.62158517 59.45962827 55.47894492 36.125 32 C35.62621338 31.49654053 35.12742676 30.99308105 34.61352539 30.47436523 C27.90557846 23.79517454 20.60627136 17.77273882 13.3125 11.75 C12.57966797 11.13898438 11.84683594 10.52796875 11.09179688 9.8984375 C8.12283448 7.44616558 5.29581519 5.17603491 1.98046875 3.203125 C1.32691406 2.80609375 0.67335938 2.4090625 0 2 C0 1.34 0 0.68 0 0 Z " fill="#2D30F6" transform="translate(837,240)"/>
<path d="M0 0 C3.28731688 1.09577229 3.88003756 1.77804601 6 4.375 C14.35579582 14.21470036 23.83384717 23.0576931 34 31 C33.67 31.66 33.34 32.32 33 33 C30.32495328 30.67614657 27.66159536 28.33924175 25 26 C24.26394531 25.35933594 23.52789062 24.71867188 22.76953125 24.05859375 C17.29963367 19.2300577 12.0606171 14.19380147 6.875 9.0625 C6.19880615 8.39927734 5.5226123 7.73605469 4.82592773 7.05273438 C4.20016846 6.42818359 3.57440918 5.80363281 2.9296875 5.16015625 C2.08253174 4.31916382 2.08253174 4.31916382 1.21826172 3.46118164 C0 2 0 2 0 0 Z " fill="#2F31F6" transform="translate(299,834)"/>
<path d="M0 0 C0.66 0.33 1.32 0.66 2 1 C1.59160889 1.4031543 1.18321777 1.80630859 0.76245117 2.22167969 C-1.09852721 4.06178383 -2.95553724 5.90584388 -4.8125 7.75 C-5.45509766 8.38421875 -6.09769531 9.0184375 -6.75976562 9.671875 C-7.38173828 10.290625 -8.00371094 10.909375 -8.64453125 11.546875 C-9.21534424 12.11245117 -9.78615723 12.67802734 -10.37426758 13.26074219 C-12.07347736 15.07860831 -13.54275828 16.98495317 -15 19 C-15.66 18.67 -16.32 18.34 -17 18 C-11.65611545 11.66519646 -5.91166188 5.80460966 0 0 Z " fill="#3637F6" transform="translate(317,269)"/>
<path d="M0 0 C4.1424367 1.38081223 5.32203099 3.59825558 8 7 C7.67 7.66 7.34 8.32 7 9 C5.82737096 7.88121617 4.66204862 6.75476949 3.5 5.625 C2.8503125 4.99851562 2.200625 4.37203125 1.53125 3.7265625 C0 2 0 2 0 0 Z " fill="#383AF6" transform="translate(299,834)"/>
</svg>
